<svg width="63" height="52" viewBox="0 0 63 52" fill="none" xmlns="http://www.w3.org/2000/svg">
<rect width="63" height="52" rx="12" fill="#FF6A3D"/>
<path d="M23.2617 29.7031V17.9375H27.0586V29.7031C27.0586 30.8438 26.8008 31.8281 26.2852 32.6562C25.7773 33.4766 25.0859 34.1133 24.2109 34.5664C23.3438 35.0117 22.3633 35.2344 21.2695 35.2344C20.1445 35.2344 19.1445 35.0469 18.2695 34.6719C17.3945 34.2891 16.707 33.707 16.207 32.9258C15.7148 32.1367 15.4688 31.1328 15.4688 29.9141H19.2891C19.2891 30.5156 19.3633 30.9922 19.5117 31.3438C19.668 31.6875 19.8945 31.9297 20.1914 32.0703C20.4883 32.2109 20.8477 32.2812 21.2695 32.2812C21.6758 32.2812 22.0273 32.1836 22.3242 31.9883C22.6211 31.7852 22.8516 31.4922 23.0156 31.1094C23.1797 30.7188 23.2617 30.25 23.2617 29.7031ZM36.6797 27.6289H32.2969L32.2734 25.0742H35.8945C36.5352 25.0742 37.0547 24.9961 37.4531 24.8398C37.8594 24.6836 38.1562 24.457 38.3438 24.1602C38.5312 23.8555 38.625 23.4805 38.625 23.0352C38.625 22.5273 38.5312 22.1172 38.3438 21.8047C38.1562 21.4922 37.8594 21.2656 37.4531 21.125C37.0547 20.9766 36.5391 20.9023 35.9062 20.9023H33.6797V35H29.8594V17.9375H35.9062C36.9297 17.9375 37.8438 18.0312 38.6484 18.2188C39.4531 18.4062 40.1367 18.6953 40.6992 19.0859C41.2695 19.4766 41.7031 19.9648 42 20.5508C42.2969 21.1367 42.4453 21.8281 42.4453 22.625C42.4453 23.3203 42.2891 23.9688 41.9766 24.5703C41.6719 25.1719 41.1797 25.6602 40.5 26.0352C39.8203 26.4102 38.9102 26.6133 37.7695 26.6445L36.6797 27.6289ZM36.5273 35H31.3242L32.707 32.0469H36.5273C37.1133 32.0469 37.5898 31.9531 37.957 31.7656C38.3242 31.5781 38.5938 31.3242 38.7656 31.0039C38.9375 30.6836 39.0234 30.3242 39.0234 29.9258C39.0234 29.457 38.9414 29.0508 38.7773 28.707C38.6211 28.3633 38.3711 28.0977 38.0273 27.9102C37.6914 27.7227 37.2422 27.6289 36.6797 27.6289H33.2578L33.2812 25.0742H37.4648L38.3555 26.082C39.4414 26.0586 40.3086 26.2344 40.957 26.6094C41.6133 26.9766 42.0859 27.4609 42.375 28.0625C42.6641 28.6641 42.8086 29.3008 42.8086 29.9727C42.8086 31.082 42.5703 32.0117 42.0938 32.7617C41.6172 33.5039 40.9102 34.0625 39.9727 34.4375C39.043 34.8125 37.8945 35 36.5273 35Z" fill="black"/>
<path d="M45.293 33.2656C45.293 32.7344 45.4805 32.2891 45.8555 31.9297C46.2383 31.5703 46.7344 31.3906 47.3438 31.3906C47.9609 31.3906 48.4531 31.5703 48.8203 31.9297C49.1953 32.2891 49.3828 32.7344 49.3828 33.2656C49.3828 33.7891 49.1953 34.2305 48.8203 34.5898C48.4531 34.9492 47.9609 35.1289 47.3438 35.1289C46.7344 35.1289 46.2383 34.9492 45.8555 34.5898C45.4805 34.2305 45.293 33.7891 45.293 33.2656Z" fill="white"/>
</svg>
